<?xml version="1.0" encoding="UTF-8" standalone="no"?>
<!-- Generator: Adobe Illustrator 22.0.1, SVG Export Plug-In . SVG Version: 6.00 Build 0)  -->

<svg
   version="1.1"
   id="Calque_1"
   x="0px"
   y="0px"
   viewBox="0 0 350.82596 181.73459"
   xml:space="preserve"
   sodipodi:docname="logo.svg"
   width="350.82596"
   height="181.73459"
   inkscape:version="1.1.1 (3bf5ae0d25, 2021-09-20)"
   xmlns:inkscape="http://www.inkscape.org/namespaces/inkscape"
   xmlns:sodipodi="http://sodipodi.sourceforge.net/DTD/sodipodi-0.dtd"
   xmlns:xlink="http://www.w3.org/1999/xlink"
   xmlns="http://www.w3.org/2000/svg"
   xmlns:svg="http://www.w3.org/2000/svg"><defs
   id="defs363" /><sodipodi:namedview
   id="namedview361"
   pagecolor="#ffffff"
   bordercolor="#666666"
   borderopacity="1.0"
   inkscape:pageshadow="2"
   inkscape:pageopacity="0.0"
   inkscape:pagecheckerboard="0"
   showgrid="false"
   fit-margin-top="0"
   fit-margin-left="0"
   fit-margin-right="0"
   fit-margin-bottom="0"
   inkscape:zoom="1.0368171"
   inkscape:cx="-178.91294"
   inkscape:cy="106.57617"
   inkscape:window-width="2560"
   inkscape:window-height="1372"
   inkscape:window-x="1920"
   inkscape:window-y="40"
   inkscape:window-maximized="1"
   inkscape:current-layer="Calque_1" />
<style
   type="text/css"
   id="style2">
	.st0{fill:none;stroke:#000000;stroke-width:1.4173;stroke-linecap:round;stroke-linejoin:round;stroke-miterlimit:10;}
	.st1{fill:none;stroke:#000000;stroke-width:0.72;stroke-linecap:round;stroke-linejoin:round;stroke-miterlimit:10;}
	.st2{fill:none;stroke:#000000;stroke-width:2.8346;stroke-linecap:round;stroke-linejoin:round;stroke-miterlimit:10;}
	.st3{fill:none;stroke:#000000;stroke-width:0.84;stroke-linecap:round;stroke-linejoin:round;stroke-miterlimit:10;}
	.st4{fill:none;stroke:#000000;stroke-width:0.8504;stroke-linecap:round;stroke-linejoin:round;stroke-miterlimit:10;}
	.st5{fill:none;stroke:#000000;stroke-width:0.8504;stroke-linecap:round;stroke-linejoin:round;}
	.st6{fill:none;stroke:#000000;stroke-width:0.8504;stroke-linecap:round;stroke-linejoin:round;stroke-dasharray:7.5058,7.5058;}
</style>
<polyline
   class="st0"
   points="259.2,460 267.8,460 267.8,349.7 "
   id="polyline4"
   style="stroke:#000000;stroke-opacity:1"
   transform="translate(-101.19135,-313.98269)" />
<line
   class="st1"
   x1="301.10864"
   y1="174.61731"
   x2="293.30865"
   y2="180.31729"
   id="line6"
   style="stroke:#000000;stroke-opacity:1" />
<line
   class="st1"
   x1="306.40866"
   y1="165.31729"
   x2="285.90866"
   y2="180.31729"
   id="line8"
   style="stroke:#000000;stroke-opacity:1" />
<line
   class="st1"
   x1="311.80865"
   y1="156.11731"
   x2="278.50867"
   y2="180.31729"
   id="line10"
   style="stroke:#000000;stroke-opacity:1" />
<line
   class="st1"
   x1="317.20865"
   y1="146.81729"
   x2="271.10864"
   y2="180.31729"
   id="line12"
   style="stroke:#000000;stroke-opacity:1" />
<line
   class="st1"
   x1="322.50867"
   y1="137.61731"
   x2="263.60864"
   y2="180.31729"
   id="line14"
   style="stroke:#000000;stroke-opacity:1" />
<line
   class="st1"
   x1="327.80865"
   y1="128.31729"
   x2="256.30865"
   y2="180.31729"
   id="line16"
   style="stroke:#000000;stroke-opacity:1" />
<line
   class="st1"
   x1="333.20865"
   y1="119.0173"
   x2="248.80865"
   y2="180.31729"
   id="line18"
   style="stroke:#000000;stroke-opacity:1" />
<line
   class="st1"
   x1="338.50867"
   y1="109.71732"
   x2="241.40866"
   y2="180.31729"
   id="line20"
   style="stroke:#000000;stroke-opacity:1" />
<line
   class="st1"
   x1="343.90866"
   y1="100.5173"
   x2="235.20865"
   y2="179.4173"
   id="line22"
   style="stroke:#000000;stroke-opacity:1" />
<line
   class="st1"
   x1="349.30865"
   y1="91.217316"
   x2="281.00867"
   y2="140.71732"
   id="line24"
   style="stroke:#000000;stroke-opacity:1" />
<line
   class="st1"
   x1="273.80865"
   y1="146.0173"
   x2="235.20865"
   y2="174.11731"
   id="line26"
   style="stroke:#000000;stroke-opacity:1" />
<line
   class="st1"
   x1="347.30865"
   y1="87.217316"
   x2="286.40866"
   y2="131.4173"
   id="line28"
   style="stroke:#000000;stroke-opacity:1" />
<line
   class="st1"
   x1="266.40866"
   y1="146.0173"
   x2="235.20865"
   y2="168.71732"
   id="line30"
   style="stroke:#000000;stroke-opacity:1" />
<line
   class="st1"
   x1="345.20865"
   y1="83.417297"
   x2="291.80865"
   y2="122.21732"
   id="line32"
   style="stroke:#000000;stroke-opacity:1" />
<line
   class="st1"
   x1="259.00867"
   y1="146.0173"
   x2="235.20865"
   y2="163.31729"
   id="line34"
   style="stroke:#000000;stroke-opacity:1" />
<line
   class="st1"
   x1="343.00867"
   y1="79.61731"
   x2="297.10864"
   y2="112.9173"
   id="line36"
   style="stroke:#000000;stroke-opacity:1" />
<line
   class="st1"
   x1="251.60864"
   y1="146.0173"
   x2="235.20865"
   y2="158.0173"
   id="line38"
   style="stroke:#000000;stroke-opacity:1" />
<line
   class="st1"
   x1="340.80865"
   y1="75.817291"
   x2="302.50867"
   y2="103.71732"
   id="line40"
   style="stroke:#000000;stroke-opacity:1" />
<line
   class="st1"
   x1="244.20865"
   y1="146.0173"
   x2="235.20865"
   y2="152.61731"
   id="line42"
   style="stroke:#000000;stroke-opacity:1" />
<line
   class="st1"
   x1="338.60864"
   y1="72.017303"
   x2="307.80865"
   y2="94.417297"
   id="line44"
   style="stroke:#000000;stroke-opacity:1" />
<line
   class="st1"
   x1="236.80865"
   y1="146.0173"
   x2="235.20865"
   y2="147.21732"
   id="line46"
   style="stroke:#000000;stroke-opacity:1" />
<line
   class="st1"
   x1="336.40866"
   y1="68.317291"
   x2="308.50867"
   y2="88.517303"
   id="line48"
   style="stroke:#000000;stroke-opacity:1" />
<line
   class="st1"
   x1="334.20865"
   y1="64.417297"
   x2="306.30865"
   y2="84.717316"
   id="line50"
   style="stroke:#000000;stroke-opacity:1" />
<line
   class="st1"
   x1="332.00867"
   y1="60.617313"
   x2="304.10864"
   y2="80.917297"
   id="line52"
   style="stroke:#000000;stroke-opacity:1" />
<line
   class="st1"
   x1="329.80865"
   y1="56.917301"
   x2="302.00867"
   y2="77.11731"
   id="line54"
   style="stroke:#000000;stroke-opacity:1" />
<line
   class="st1"
   x1="327.70865"
   y1="53.117313"
   x2="299.80865"
   y2="73.417297"
   id="line56"
   style="stroke:#000000;stroke-opacity:1" />
<line
   class="st1"
   x1="325.40866"
   y1="49.317295"
   x2="297.60864"
   y2="69.517303"
   id="line58"
   style="stroke:#000000;stroke-opacity:1" />
<line
   class="st1"
   x1="323.30865"
   y1="45.517307"
   x2="295.40866"
   y2="65.717316"
   id="line60"
   style="stroke:#000000;stroke-opacity:1" />
<line
   class="st1"
   x1="321.10864"
   y1="41.717319"
   x2="293.20865"
   y2="62.017307"
   id="line62"
   style="stroke:#000000;stroke-opacity:1" />
<line
   class="st1"
   x1="318.90866"
   y1="37.917301"
   x2="291.00867"
   y2="58.217319"
   id="line64"
   style="stroke:#000000;stroke-opacity:1" />
<line
   class="st1"
   x1="316.70865"
   y1="34.117313"
   x2="288.80865"
   y2="54.417301"
   id="line66"
   style="stroke:#000000;stroke-opacity:1" />
<line
   class="st1"
   x1="314.50867"
   y1="30.317293"
   x2="286.60864"
   y2="50.617313"
   id="line68"
   style="stroke:#000000;stroke-opacity:1" />
<line
   class="st1"
   x1="312.30865"
   y1="26.617311"
   x2="284.50867"
   y2="46.817295"
   id="line70"
   style="stroke:#000000;stroke-opacity:1" />
<line
   class="st1"
   x1="310.10864"
   y1="22.717318"
   x2="282.20865"
   y2="43.017307"
   id="line72"
   style="stroke:#000000;stroke-opacity:1" />
<line
   class="st1"
   x1="307.90866"
   y1="18.917299"
   x2="280.10864"
   y2="39.217319"
   id="line74"
   style="stroke:#000000;stroke-opacity:1" />
<line
   class="st1"
   x1="305.80865"
   y1="15.217319"
   x2="277.60864"
   y2="35.717319"
   id="line76"
   style="stroke:#000000;stroke-opacity:1" />
<line
   class="st1"
   x1="303.60864"
   y1="11.4173"
   x2="270.10864"
   y2="35.717319"
   id="line78"
   style="stroke:#000000;stroke-opacity:1" />
<line
   class="st1"
   x1="301.40866"
   y1="7.6173124"
   x2="262.70865"
   y2="35.717319"
   id="line80"
   style="stroke:#000000;stroke-opacity:1" />
<line
   class="st1"
   x1="299.20865"
   y1="3.8172939"
   x2="255.30865"
   y2="35.717319"
   id="line82"
   style="stroke:#000000;stroke-opacity:1" />
<line
   class="st1"
   x1="295.10864"
   y1="1.4173"
   x2="247.90866"
   y2="35.717319"
   id="line84"
   style="stroke:#000000;stroke-opacity:1" />
<line
   class="st1"
   x1="287.70865"
   y1="1.4173"
   x2="240.50867"
   y2="35.717319"
   id="line86"
   style="stroke:#000000;stroke-opacity:1" />
<line
   class="st1"
   x1="280.30865"
   y1="1.4173"
   x2="233.10864"
   y2="35.717319"
   id="line88"
   style="stroke:#000000;stroke-opacity:1" />
<line
   class="st1"
   x1="272.90866"
   y1="1.4173"
   x2="225.70865"
   y2="35.717319"
   id="line90"
   style="stroke:#000000;stroke-opacity:1" />
<line
   class="st1"
   x1="265.40866"
   y1="1.4173"
   x2="218.30865"
   y2="35.717319"
   id="line92"
   style="stroke:#000000;stroke-opacity:1" />
<line
   class="st1"
   x1="258.10864"
   y1="1.4173"
   x2="210.90866"
   y2="35.717319"
   id="line94"
   style="stroke:#000000;stroke-opacity:1" />
<line
   class="st1"
   x1="250.60864"
   y1="1.4173"
   x2="203.50867"
   y2="35.717319"
   id="line96"
   style="stroke:#000000;stroke-opacity:1" />
<line
   class="st1"
   x1="243.20865"
   y1="1.4173"
   x2="196.10864"
   y2="35.717319"
   id="line98"
   style="stroke:#000000;stroke-opacity:1" />
<line
   class="st1"
   x1="235.90866"
   y1="1.4173"
   x2="188.60864"
   y2="35.717319"
   id="line100"
   style="stroke:#000000;stroke-opacity:1" />
<line
   class="st1"
   x1="228.40866"
   y1="1.4173"
   x2="181.30865"
   y2="35.717319"
   id="line102"
   style="stroke:#000000;stroke-opacity:1" />
<line
   class="st1"
   x1="221.00867"
   y1="1.4173"
   x2="173.80865"
   y2="35.717319"
   id="line104"
   style="stroke:#000000;stroke-opacity:1" />
<line
   class="st1"
   x1="213.60864"
   y1="1.4173"
   x2="166.40866"
   y2="35.717319"
   id="line106"
   style="stroke:#000000;stroke-opacity:1" />
<line
   class="st1"
   x1="206.20865"
   y1="1.4173"
   x2="159.00867"
   y2="35.717319"
   id="line108"
   style="stroke:#000000;stroke-opacity:1" />
<line
   class="st1"
   x1="198.80865"
   y1="1.4173"
   x2="158.00867"
   y2="31.017305"
   id="line110"
   style="stroke:#000000;stroke-opacity:1" />
<line
   class="st1"
   x1="191.40866"
   y1="1.4173"
   x2="158.00867"
   y2="25.617311"
   id="line112"
   style="stroke:#000000;stroke-opacity:1" />
<line
   class="st1"
   x1="184.00867"
   y1="1.4173"
   x2="158.00867"
   y2="20.317293"
   id="line114"
   style="stroke:#000000;stroke-opacity:1" />
<line
   class="st1"
   x1="176.60864"
   y1="1.4173"
   x2="158.00867"
   y2="14.9173"
   id="line116"
   style="stroke:#000000;stroke-opacity:1" />
<line
   class="st1"
   x1="169.20865"
   y1="1.4173"
   x2="158.00867"
   y2="9.5173063"
   id="line118"
   style="stroke:#000000;stroke-opacity:1" />
<line
   class="st1"
   x1="161.80865"
   y1="1.4173"
   x2="158.00867"
   y2="4.1173124"
   id="line120"
   style="stroke:#000000;stroke-opacity:1" />
<polyline
   class="st2"
   points="302.1,315.4 267.8,315.4 259.2,315.4 259.2,349.7 379.2,349.7 "
   id="polyline122"
   style="stroke:#000000;stroke-opacity:1"
   transform="translate(-101.19135,-313.98269)" />
<polyline
   class="st0"
   points="336.4,460 336.4,486.2 336.4,494.3 239.4,494.3 "
   id="polyline124"
   style="stroke:#000000;stroke-opacity:1"
   transform="translate(-101.19135,-313.98269)" />
<line
   class="st1"
   x1="47.808651"
   y1="6.0173063"
   x2="52.008648"
   y2="9.8172941"
   id="line126"
   style="stroke:#000000;stroke-opacity:1" />
<line
   class="st1"
   x1="5.1086531"
   y1="6.0173063"
   x2="9.4086485"
   y2="9.8172941"
   id="line128"
   style="stroke:#000000;stroke-opacity:1" />
<line
   class="st1"
   x1="52.008648"
   y1="9.8172941"
   x2="52.908657"
   y2="19.717318"
   id="line130"
   style="stroke:#000000;stroke-opacity:1" />
<line
   class="st1"
   x1="9.4086485"
   y1="9.8172941"
   x2="10.208652"
   y2="19.717318"
   id="line132"
   style="stroke:#000000;stroke-opacity:1" />
<line
   class="st1"
   x1="52.908657"
   y1="19.717318"
   x2="47.808651"
   y2="24.317293"
   id="line134"
   style="stroke:#000000;stroke-opacity:1" />
<line
   class="st1"
   x1="10.208652"
   y1="19.717318"
   x2="5.1086531"
   y2="24.317293"
   id="line136"
   style="stroke:#000000;stroke-opacity:1" />
<line
   class="st1"
   x1="63.508648"
   y1="36.317295"
   x2="72.508644"
   y2="36.717319"
   id="line138"
   style="stroke:#000000;stroke-opacity:1" />
<line
   class="st1"
   x1="32.308651"
   y1="35.717319"
   x2="37.908657"
   y2="33.317295"
   id="line140"
   style="stroke:#000000;stroke-opacity:1" />
<line
   class="st1"
   x1="72.508644"
   y1="36.717319"
   x2="74.708641"
   y2="35.817295"
   id="line142"
   style="stroke:#000000;stroke-opacity:1" />
<line
   class="st1"
   x1="37.908657"
   y1="33.317295"
   x2="38.308651"
   y2="24.317293"
   id="line144"
   style="stroke:#000000;stroke-opacity:1" />
<line
   class="st1"
   x1="80.60865"
   y1="32.417301"
   x2="81.008644"
   y2="24.317293"
   id="line146"
   style="stroke:#000000;stroke-opacity:1" />
<line
   class="st1"
   x1="38.308651"
   y1="24.317293"
   x2="31.108652"
   y2="15.017306"
   id="line148"
   style="stroke:#000000;stroke-opacity:1" />
<line
   class="st1"
   x1="81.008644"
   y1="24.317293"
   x2="73.808647"
   y2="15.017306"
   id="line150"
   style="stroke:#000000;stroke-opacity:1" />
<line
   class="st1"
   x1="31.108652"
   y1="15.017306"
   x2="20.508646"
   y2="11.617312"
   id="line152"
   style="stroke:#000000;stroke-opacity:1" />
<polyline
   class="st1"
   points="175,329 164.3,325.6 156.6,330.2 "
   id="polyline154"
   style="stroke:#000000;stroke-opacity:1"
   transform="translate(-101.19135,-313.98269)" />
<line
   class="st1"
   x1="20.508646"
   y1="11.617312"
   x2="12.80865"
   y2="16.217318"
   id="line156"
   style="stroke:#000000;stroke-opacity:1" />
<line
   class="st1"
   x1="55.408657"
   y1="16.217318"
   x2="54.608654"
   y2="26.517305"
   id="line158"
   style="stroke:#000000;stroke-opacity:1" />
<line
   class="st1"
   x1="12.80865"
   y1="16.217318"
   x2="11.908648"
   y2="26.517305"
   id="line160"
   style="stroke:#000000;stroke-opacity:1" />
<line
   class="st1"
   x1="54.608654"
   y1="26.517305"
   x2="63.508648"
   y2="36.317295"
   id="line162"
   style="stroke:#000000;stroke-opacity:1" />
<line
   class="st1"
   x1="11.908648"
   y1="26.517305"
   x2="20.308649"
   y2="35.717319"
   id="line164"
   style="stroke:#000000;stroke-opacity:1" />
<polyline
   class="st1"
   points="165.2,350.7 162.2,354.1 161.6,358.1 "
   id="polyline166"
   style="stroke:#000000;stroke-opacity:1"
   transform="translate(-101.19135,-313.98269)" />
<line
   class="st1"
   x1="60.408657"
   y1="1.4173"
   x2="59.708645"
   y2="6.0173063"
   id="line168"
   style="stroke:#000000;stroke-opacity:1" />
<line
   class="st1"
   x1="17.708651"
   y1="1.4173"
   x2="17.008646"
   y2="6.0173063"
   id="line170"
   style="stroke:#000000;stroke-opacity:1" />
<line
   class="st1"
   x1="59.708645"
   y1="6.0173063"
   x2="64.008644"
   y2="10.317294"
   id="line172"
   style="stroke:#000000;stroke-opacity:1" />
<line
   class="st1"
   x1="17.008646"
   y1="6.0173063"
   x2="21.308649"
   y2="10.317294"
   id="line174"
   style="stroke:#000000;stroke-opacity:1" />
<line
   class="st1"
   x1="54.608654"
   y1="9.0173063"
   x2="55.908657"
   y2="12.017306"
   id="line176"
   style="stroke:#000000;stroke-opacity:1" />
<polyline
   class="st1"
   points="113.1,323 114.4,326 118.7,324.3 "
   id="polyline178"
   style="stroke:#000000;stroke-opacity:1"
   transform="translate(-101.19135,-313.98269)" />
<line
   class="st1"
   x1="55.908657"
   y1="12.017306"
   x2="60.108654"
   y2="10.317294"
   id="line180"
   style="stroke:#000000;stroke-opacity:1" />
<line
   class="st1"
   x1="17.508646"
   y1="10.317294"
   x2="13.608653"
   y2="3.9173"
   id="line182"
   style="stroke:#000000;stroke-opacity:1" />
<polyline
   class="st1"
   points="161.3,324.3 157.5,317.9 155.8,323 "
   id="polyline184"
   style="stroke:#000000;stroke-opacity:1"
   transform="translate(-101.19135,-313.98269)" />
<line
   class="st1"
   x1="13.608653"
   y1="3.9173"
   x2="11.908648"
   y2="9.0173063"
   id="line186"
   style="stroke:#000000;stroke-opacity:1" />
<line
   class="st1"
   x1="12.908648"
   y1="35.717319"
   x2="11.008647"
   y2="29.517305"
   id="line188"
   style="stroke:#000000;stroke-opacity:1" />
<line
   class="st1"
   x1="55.908657"
   y1="36.717319"
   x2="53.708645"
   y2="29.517305"
   id="line190"
   style="stroke:#000000;stroke-opacity:1" />
<line
   class="st1"
   x1="11.008647"
   y1="29.517305"
   x2="5.1086531"
   y2="27.317293"
   id="line192"
   style="stroke:#000000;stroke-opacity:1" />
<line
   class="st1"
   x1="53.708645"
   y1="29.517305"
   x2="47.808651"
   y2="27.317293"
   id="line194"
   style="stroke:#000000;stroke-opacity:1" />
<line
   class="st1"
   x1="5.1086531"
   y1="3.9173"
   x2="10.908648"
   y2="1.4173"
   id="line196"
   style="stroke:#000000;stroke-opacity:1" />
<line
   class="st1"
   x1="47.808651"
   y1="3.9173"
   x2="53.508648"
   y2="1.4173"
   id="line198"
   style="stroke:#000000;stroke-opacity:1" />
<line
   class="st1"
   x1="55.708645"
   y1="37.317295"
   x2="55.908657"
   y2="36.717319"
   id="line200"
   style="stroke:#000000;stroke-opacity:1" />
<line
   class="st1"
   x1="40.008648"
   y1="35.717319"
   x2="42.208645"
   y2="29.917299"
   id="line202"
   style="stroke:#000000;stroke-opacity:1" />
<line
   class="st1"
   x1="84.808647"
   y1="29.917299"
   x2="84.808647"
   y2="29.917299"
   id="line204"
   style="stroke:#000000;stroke-opacity:1" />
<line
   class="st1"
   x1="0.70865154"
   y1="29.417299"
   x2="5.1086531"
   y2="27.317293"
   id="line206"
   style="stroke:#000000;stroke-opacity:1" />
<line
   class="st1"
   x1="42.208645"
   y1="29.917299"
   x2="47.808651"
   y2="27.317293"
   id="line208"
   style="stroke:#000000;stroke-opacity:1" />
<line
   class="st1"
   x1="84.808647"
   y1="29.917299"
   x2="85.10865"
   y2="29.817293"
   id="line210"
   style="stroke:#000000;stroke-opacity:1" />
<line
   class="st1"
   x1="5.1086531"
   y1="3.5173061"
   x2="0.70865154"
   y2="1.5173061"
   id="line212"
   style="stroke:#000000;stroke-opacity:1" />
<line
   class="st1"
   x1="47.808651"
   y1="3.5173061"
   x2="43.008648"
   y2="1.4173"
   id="line214"
   style="stroke:#000000;stroke-opacity:1" />
<line
   class="st1"
   x1="5.1086531"
   y1="24.317293"
   x2="1.7086515"
   y2="23.117311"
   id="line216"
   style="stroke:#000000;stroke-opacity:1" />
<line
   class="st1"
   x1="47.808651"
   y1="24.317293"
   x2="44.308651"
   y2="23.117311"
   id="line218"
   style="stroke:#000000;stroke-opacity:1" />
<line
   class="st1"
   x1="87.10865"
   y1="23.117311"
   x2="87.008644"
   y2="23.117311"
   id="line220"
   style="stroke:#000000;stroke-opacity:1" />
<line
   class="st1"
   x1="47.808651"
   y1="6.0173063"
   x2="45.608654"
   y2="6.5173063"
   id="line222"
   style="stroke:#000000;stroke-opacity:1" />
<line
   class="st1"
   x1="5.1086531"
   y1="6.0173063"
   x2="2.9086485"
   y2="6.5173063"
   id="line224"
   style="stroke:#000000;stroke-opacity:1" />
<line
   class="st1"
   x1="45.608654"
   y1="6.5173063"
   x2="43.508648"
   y2="15.017306"
   id="line226"
   style="stroke:#000000;stroke-opacity:1" />
<line
   class="st1"
   x1="2.9086485"
   y1="6.5173063"
   x2="0.80865002"
   y2="15.017306"
   id="line228"
   style="stroke:#000000;stroke-opacity:1" />
<line
   class="st1"
   x1="87.008644"
   y1="22.917299"
   x2="87.008644"
   y2="23.117311"
   id="line230"
   style="stroke:#000000;stroke-opacity:1" />
<line
   class="st1"
   x1="43.508648"
   y1="15.017306"
   x2="44.308651"
   y2="23.117311"
   id="line232"
   style="stroke:#000000;stroke-opacity:1" />
<line
   class="st1"
   x1="0.80865002"
   y1="15.017306"
   x2="1.7086515"
   y2="23.117311"
   id="line234"
   style="stroke:#000000;stroke-opacity:1" />
<line
   class="st1"
   x1="21.308649"
   y1="10.317294"
   x2="26.408648"
   y2="6.9173002"
   id="line236"
   style="stroke:#000000;stroke-opacity:1" />
<line
   class="st1"
   x1="64.008644"
   y1="10.317294"
   x2="69.10865"
   y2="6.9173002"
   id="line238"
   style="stroke:#000000;stroke-opacity:1" />
<line
   class="st1"
   x1="26.408648"
   y1="6.9173002"
   x2="27.108652"
   y2="1.4173"
   id="line240"
   style="stroke:#000000;stroke-opacity:1" />
<line
   class="st1"
   x1="69.10865"
   y1="6.9173002"
   x2="69.708641"
   y2="1.4173"
   id="line242"
   style="stroke:#000000;stroke-opacity:1" />
<polyline
   class="st1"
   points="171,352.6 167.7,350.7 165.2,350.7 "
   id="polyline244"
   style="stroke:#000000;stroke-opacity:1"
   transform="translate(-101.19135,-313.98269)" />
<line
   class="st1"
   x1="83.408653"
   y1="16.717318"
   x2="79.708641"
   y2="18.817293"
   id="line246"
   style="stroke:#000000;stroke-opacity:1" />
<polyline
   class="st1"
   points="143.4,329.8 138.3,332.8 129.8,325.1 "
   id="polyline248"
   style="stroke:#000000;stroke-opacity:1"
   transform="translate(-101.19135,-313.98269)" />
<line
   class="st1"
   x1="79.708641"
   y1="18.817293"
   x2="71.208641"
   y2="11.117312"
   id="line250"
   style="stroke:#000000;stroke-opacity:1" />
<line
   class="st1"
   x1="28.608652"
   y1="11.117312"
   x2="28.608652"
   y2="1.4173"
   id="line252"
   style="stroke:#000000;stroke-opacity:1" />
<line
   class="st1"
   x1="71.208641"
   y1="11.117312"
   x2="71.208641"
   y2="1.4173"
   id="line254"
   style="stroke:#000000;stroke-opacity:1" />
<polyline
   class="st1"
   points="142.3,315.4 144.3,319.1 143.4,329.8 "
   id="polyline256"
   style="stroke:#000000;stroke-opacity:1"
   transform="translate(-101.19135,-313.98269)" />
<line
   class="st0"
   x1="158.00867"
   y1="146.0173"
   x2="74.60865"
   y2="1.4173"
   id="line258"
   style="stroke:#000000;stroke-opacity:1" />
<line
   class="st0"
   x1="138.20865"
   y1="180.31729"
   x2="54.808651"
   y2="35.717319"
   id="line260"
   style="stroke:#000000;stroke-opacity:1" />
<line
   class="st0"
   x1="0.70865154"
   y1="1.4173"
   x2="74.60865"
   y2="1.4173"
   id="line262"
   style="stroke:#000000;stroke-opacity:1" />
<polyline
   class="st0"
   points="101.9,315.4 101.9,349.7 156,349.7 "
   id="polyline264"
   style="stroke:#000000;stroke-opacity:1"
   transform="translate(-101.19135,-313.98269)" />
<line
   class="st2"
   x1="200.90866"
   y1="1.4173"
   x2="297.80865"
   y2="1.4173"
   id="line266"
   style="stroke:#000000;stroke-opacity:1" />
<line
   class="st2"
   x1="278.00867"
   y1="35.717319"
   x2="309.80865"
   y2="90.817291"
   id="line268"
   style="stroke:#000000;stroke-opacity:1" />
<line
   class="st2"
   x1="349.40866"
   y1="90.817291"
   x2="297.80865"
   y2="1.4173"
   id="line270"
   style="stroke:#000000;stroke-opacity:1" />
<line
   class="st2"
   x1="235.20865"
   y1="146.0173"
   x2="278.00867"
   y2="146.0173"
   id="line272"
   style="stroke:#000000;stroke-opacity:1" />
<line
   class="st2"
   x1="235.20865"
   y1="180.31729"
   x2="297.80865"
   y2="180.31729"
   id="line274"
   style="stroke:#000000;stroke-opacity:1" />
<line
   class="st2"
   x1="278.00867"
   y1="146.0173"
   x2="309.80865"
   y2="90.817291"
   id="line276"
   style="stroke:#000000;stroke-opacity:1" />
<line
   class="st2"
   x1="349.40866"
   y1="90.817291"
   x2="297.80865"
   y2="180.31729"
   id="line278"
   style="stroke:#000000;stroke-opacity:1" />
<line
   class="st2"
   x1="235.20865"
   y1="180.31729"
   x2="235.20865"
   y2="147.0173"
   id="line280"
   style="stroke:#000000;stroke-opacity:1" />
<line
   class="st1"
   x1="153.80865"
   y1="138.61731"
   x2="124.10865"
   y2="155.71732"
   id="line282"
   style="stroke:#000000;stroke-opacity:1" />
<line
   class="st1"
   x1="149.50865"
   y1="131.21732"
   x2="119.80865"
   y2="148.31729"
   id="line284"
   style="stroke:#000000;stroke-opacity:1" />
<line
   class="st1"
   x1="145.20865"
   y1="123.81729"
   x2="115.50864"
   y2="140.9173"
   id="line286"
   style="stroke:#000000;stroke-opacity:1" />
<line
   class="st1"
   x1="140.90866"
   y1="116.31729"
   x2="111.20864"
   y2="133.5173"
   id="line288"
   style="stroke:#000000;stroke-opacity:1" />
<line
   class="st1"
   x1="136.60866"
   y1="108.9173"
   x2="106.90865"
   y2="126.0173"
   id="line290"
   style="stroke:#000000;stroke-opacity:1" />
<line
   class="st1"
   x1="132.40866"
   y1="101.5173"
   x2="102.70864"
   y2="118.61731"
   id="line292"
   style="stroke:#000000;stroke-opacity:1" />
<line
   class="st1"
   x1="128.00865"
   y1="94.11731"
   x2="98.308647"
   y2="111.21732"
   id="line294"
   style="stroke:#000000;stroke-opacity:1" />
<line
   class="st1"
   x1="123.80865"
   y1="86.61731"
   x2="94.10865"
   y2="103.81729"
   id="line296"
   style="stroke:#000000;stroke-opacity:1" />
<line
   class="st1"
   x1="119.50864"
   y1="79.217316"
   x2="89.808647"
   y2="96.317291"
   id="line298"
   style="stroke:#000000;stroke-opacity:1" />
<line
   class="st1"
   x1="115.20864"
   y1="71.817291"
   x2="85.508644"
   y2="89.017303"
   id="line300"
   style="stroke:#000000;stroke-opacity:1" />
<line
   class="st1"
   x1="110.90865"
   y1="64.417297"
   x2="81.208641"
   y2="81.517303"
   id="line302"
   style="stroke:#000000;stroke-opacity:1" />
<line
   class="st1"
   x1="106.60865"
   y1="56.917301"
   x2="76.908653"
   y2="74.11731"
   id="line304"
   style="stroke:#000000;stroke-opacity:1" />
<line
   class="st1"
   x1="102.40865"
   y1="49.517307"
   x2="72.708641"
   y2="66.61731"
   id="line306"
   style="stroke:#000000;stroke-opacity:1" />
<line
   class="st1"
   x1="98.008644"
   y1="42.117313"
   x2="68.408653"
   y2="59.317295"
   id="line308"
   style="stroke:#000000;stroke-opacity:1" />
<line
   class="st1"
   x1="93.808647"
   y1="34.717319"
   x2="64.10865"
   y2="51.817295"
   id="line310"
   style="stroke:#000000;stroke-opacity:1" />
<line
   class="st1"
   x1="89.508644"
   y1="27.317293"
   x2="59.808651"
   y2="44.417301"
   id="line312"
   style="stroke:#000000;stroke-opacity:1" />
<polyline
   class="st1"
   points="175.8,349.9 240.1,461.2 241.4,456.2 "
   id="polyline314"
   style="stroke:#000000;stroke-opacity:1"
   transform="translate(-101.19135,-313.98269)" />
<line
   class="st1"
   x1="138.90866"
   y1="147.21732"
   x2="133.90866"
   y2="145.81729"
   id="line316"
   style="stroke:#000000;stroke-opacity:1" />
<line
   class="st1"
   x1="194.00867"
   y1="35.717319"
   x2="200.90866"
   y2="35.717319"
   id="line318"
   style="stroke:#000000;stroke-opacity:1" />
<line
   class="st1"
   x1="200.90866"
   y1="180.31729"
   x2="194.00867"
   y2="180.31729"
   id="line320"
   style="stroke:#000000;stroke-opacity:1" />
<polyline
   class="st0"
   points="295.2,467.1 295.2,460.2 301.5,460.2 "
   id="polyline322"
   style="stroke:#000000;stroke-opacity:1"
   transform="translate(-101.19135,-313.98269)" />
<g
   id="g330"
   transform="translate(-101.19135,-313.98269)">
	<defs
   id="defs325">
		<polyline
   id="SVGID_1_"
   points="16,792 578.4,792 578.4,51 16,51 16,792   " />
	</defs>
	<clipPath
   id="SVGID_2_">
		<use
   xlink:href="#SVGID_1_"
   style="overflow:visible"
   id="use327"
   x="0"
   y="0"
   width="100%"
   height="100%" />
	</clipPath>
</g>
<line
   class="st3"
   x1="194.00867"
   y1="180.31729"
   x2="200.80865"
   y2="180.31729"
   id="line332"
   style="stroke:#000000;stroke-opacity:1" />
<line
   class="st0"
   x1="194.00867"
   y1="153.11731"
   x2="200.30865"
   y2="153.11731"
   id="line334"
   style="stroke:#000000;stroke-opacity:1" />
<polyline
   class="st0"
   points="301.6,356.6 294.8,356.6 294.8,349.8 "
   id="polyline336"
   style="stroke:#000000;stroke-opacity:1"
   transform="translate(-101.19135,-313.98269)" />
<line
   class="st0"
   x1="200.40866"
   y1="42.617313"
   x2="200.50867"
   y2="35.717319"
   id="line338"
   style="stroke:#000000;stroke-opacity:1" />
<line
   class="st0"
   x1="200.30865"
   y1="153.11731"
   x2="200.30865"
   y2="146.5173"
   id="line340"
   style="stroke:#000000;stroke-opacity:1" />
<rect
   x="196.00867"
   y="42.817295"
   class="st0"
   width="2.0999999"
   height="103.1"
   id="rect342"
   style="stroke:#000000;stroke-opacity:1" />
<rect
   x="-178.87752"
   y="230.52763"
   transform="rotate(-90)"
   class="st4"
   width="29.5"
   height="1.6"
   id="rect344"
   style="stroke:#000000;stroke-opacity:1" />
<rect
   x="232.10864"
   y="147.4173"
   class="st4"
   width="3.0999999"
   height="3.0999999"
   id="rect346"
   style="stroke:#000000;stroke-opacity:1" />
<rect
   x="200.30865"
   y="147.4173"
   class="st4"
   width="3.0999999"
   height="3.0999999"
   id="rect348"
   style="stroke:#000000;stroke-opacity:1" />
<g
   id="g358"
   style="stroke:#000000;stroke-opacity:1"
   transform="translate(-101.19135,-313.98269)">
	<g
   id="g356"
   style="stroke:#000000;stroke-opacity:1">
		<path
   class="st5"
   d="m 304.6,463 c 0,1.4 0.1,2.9 0.3,4.2"
   id="path350"
   style="stroke:#000000;stroke-opacity:1" />
		<path
   class="st6"
   d="m 306.8,474.5 c 3.3,8.3 10.2,14.8 18.6,17.3"
   id="path352"
   style="stroke:#000000;stroke-opacity:1" />
		<path
   class="st5"
   d="m 329.1,492.6 c 1.4,0.2 2.8,0.3 4.2,0.3"
   id="path354"
   style="stroke:#000000;stroke-opacity:1" />
	</g>
</g>
</svg>
